<?xml version="1.0" encoding="UTF-8"?>
<svg id="_圖層_1" data-name="圖層 1" xmlns="http://www.w3.org/2000/svg" viewBox="0 0 233.63 51.52">
  <defs>
    <style>
      .cls-1 {
        fill: #006450;
      }

      .cls-1, .cls-2, .cls-3, .cls-4 {
        stroke-width: 0px;
      }

      .cls-2 {
        fill: #e5001e;
      }

      .cls-3 {
        fill: #ed6c00;
      }

      .cls-4 {
        fill: #ff5100;
      }
    </style>
  </defs>
  <g>
    <path class="cls-4" d="M60.89,23.78h36.33c1.08,0,2.21-.85,2.51-1.88l1.76-5.98c.3-1.03-.33-1.88-1.41-1.88h-36.33c-1.08,0-2.21.85-2.51,1.88l-1.76,5.98c-.3,1.03.33,1.88,1.41,1.88ZM87.8,19.81l.56-1.89c.05-.17.23-.3.4-.3h5.01c.17,0,.27.14.22.3l-.56,1.89c-.05.17-.23.3-.4.3h-5.01c-.17,0-.27-.14-.22-.3ZM77.15,19.81l.56-1.89c.05-.17.23-.3.4-.3h5.01c.17,0,.27.14.22.3l-.56,1.89c-.05.17-.23.3-.4.3h-5.01c-.17,0-.27-.14-.22-.3ZM66.5,19.81l.56-1.89c.05-.17.23-.3.4-.3h5.01c.17,0,.27.14.22.3l-.56,1.89c-.05.17-.23.3-.4.3h-5.01c-.17,0-.27-.14-.22-.3Z"/>
    <path class="cls-4" d="M64.45,12.61h35.41c.65,0,1.32-.51,1.51-1.13l.35-1.18c.18-.62-.2-1.13-.84-1.13h-14.5s0-.01,0-.02l.41-1.41h15.99c.65,0,1.32-.51,1.51-1.13l.35-1.18c.18-.62-.2-1.13-.84-1.13h-16l.33-1.13c.3-1.03-.34-1.88-1.41-1.88h-3.62c-1.08,0-2.2.85-2.5,1.88l-.33,1.13h-14.35c-.65,0-1.32.51-1.51,1.13l-.35,1.18c-.18.62.2,1.13.84,1.13h14.37l-.41,1.41s0,.01,0,.02h-13.37c-.65,0-1.32.51-1.51,1.13l-.35,1.18c-.18.62.2,1.13.84,1.13Z"/>
    <path class="cls-4" d="M108.33,11.41h5.44c.31,0,.67-.04,1.04-.12l-1.95,5.95c-.34,1.02.27,1.86,1.35,1.86h3.82c1.08,0,2.23-.84,2.57-1.86l1.98-6.02c.34-1.02-.27-1.86-1.35-1.86h-2.66l9.42-6.82c.87-.63.7-1.15-.37-1.15h-5.44c-1.08,0-2.67.52-3.54,1.15l-10.67,7.73c-.87.63-.7,1.15.37,1.15Z"/>
    <path class="cls-4" d="M154.16,22.39h5.44c1.08,0,2.39-.77,2.93-1.7l10-17.6c.53-.94.09-1.7-.99-1.7h-5.44c-1.08,0-2.39.77-2.93,1.7l-10,17.6c-.53.94-.09,1.7.99,1.7Z"/>
    <path class="cls-4" d="M139.22,11.27l8.97-2.01c1.05-.24,2.16-1.27,2.46-2.31l.86-2.93c.3-1.03-.31-1.69-1.36-1.45l-8.97,2.01c-1.05.24-2.16,1.27-2.46,2.31l-.86,2.93c-.3,1.03.31,1.69,1.36,1.45Z"/>
    <path class="cls-4" d="M128.1,18.96h18.61c1.08,0,2.21-.84,2.53-1.87l.69-2.27c.31-1.03-.31-1.87-1.39-1.87h-11.01c-1.08,0-1.72-.85-1.43-1.88l2.21-7.83c.29-1.04-.35-1.88-1.43-1.88h-3.82c-1.08,0-2.2.85-2.49,1.88l-3.9,13.85c-.29,1.04.35,1.88,1.43,1.88Z"/>
    <path class="cls-4" d="M49.38,50.27h11.6c1.08,0,2.75-.38,3.72-.84l10.82-5.17h14.17c1.08,0,2.23-.84,2.55-1.87l4.83-15.17c.33-1.03-.29-1.87-1.36-1.87h-33.46c-1.08,0-2.23.84-2.55,1.87l-4.83,15.17c-.33,1.03.29,1.87,1.36,1.87h3.78l-10.82,5.17c-.97.46-.89.84.19.84ZM68.9,30.05l.18-.54c.13-.41.59-.75,1.02-.75h15.44c.43,0,.67.34.54.75l-.18.54c-.13.41-.59.74-1.02.74h-15.44c-.43,0-.67-.34-.54-.74ZM67.58,34.13l.17-.51c.13-.41.59-.75,1.02-.75h15.44c.43,0,.67.34.54.75l-.17.51c-.13.41-.59.75-1.02.75h-15.44c-.43,0-.67-.34-.54-.75ZM66.25,38.23l.17-.52c.13-.41.59-.75,1.02-.75h15.44c.43,0,.67.34.54.75l-.17.52c-.13.41-.59.74-1.02.74h-15.44c-.43,0-.67-.34-.54-.74Z"/>
    <path class="cls-4" d="M174.36,9.1c-1.08,0-2.2.85-2.49,1.89l-5.82,20.79c-.29,1.04.35,1.89,1.43,1.89h7.36l-1.5,1.81c-.43-.09-.85-.14-1.2-.14h-9.88c-1.08,0-1.21.46-.29,1.02l7.06,4.3-5.37,6.46h0s-.02.03-.07.09l-.12.15c-.33.36-1.15.98-2.95,1.11h-4.08c.18-.24.32-.51.4-.79l6.11-21.96c.29-1.04-.36-1.89-1.43-1.89h-3.82c-1.08,0-2.19.85-2.48,1.89l-6.11,21.96c-.08.28-.09.55-.04.79h-9.04c-1.08-.14-1.93-.87-1.93-.87h0s-1.25-1.14-1.25-1.14c-.79-.73-2.32-1.33-3.4-1.33h-9.12c-1.08,0-1.31.6-.52,1.33l2.71,2.5c.79.73,2.32,1.33,3.4,1.33h39.34c1.08,0,2.52-.68,3.21-1.51l3.32-4,7.36,4.49c.92.56,2.55,1.02,3.63,1.02h1.47s44.89,0,44.89,0c.59,0,.67-.26.17-.57l-2.16-1.36c-.5-.32-1.4-.57-1.99-.57h-32.12c-2.83,0-4.16-1-4.16-1h0s-10.79-6.57-10.79-6.57h0s-.04-.02-.06-.04l-.11-.06c-.97-.65-.67-1.67-.3-2.34l3.4-4.09h9.38c1.08,0,2.2-.85,2.49-1.89l5.82-20.79c.29-1.04-.35-1.89-1.43-1.89h-8.92l.5-1.79h6.58c1.08,0,2.19-.85,2.48-1.89l.63-2.29c.29-1.04-.36-1.89-1.44-1.89h-22.29c-1.08,0-2.19.85-2.48,1.89l-.63,2.29c-.29,1.04.36,1.89,1.44,1.89h6.79l-.5,1.79h-9.06ZM177.05,19.23l.83-2.95c.12-.41.56-.75.99-.75h1.95c.43,0,.69.34.57.75l-.65,2.31-.18.64c-.12.41-.57.75-1,.75h-1.94c-.43,0-.69-.34-.57-.75ZM174.78,27.33l.85-3.03c.12-.41.56-.75.99-.75h1.93c.43,0,.69.34.57.75l-.71,2.5-.15.53c-.12.41-.57.75-1,.75h-1.92c-.43,0-.69-.34-.57-.75ZM191.64,24.3l-.85,3.03c-.12.41-.56.75-.99.75h-2.03c-.43,0-.69-.34-.57-.75l.86-3.03c.12-.41.57-.75,1-.75h2.02c.43,0,.69.34.57.75ZM191.31,15.52h2c.43,0,.69.34.57.75l-.83,2.95c-.12.41-.56.75-.99.75h-2.01c-.43,0-.69-.34-.57-.75l.83-2.95c.12-.41.57-.75,1-.75Z"/>
    <path class="cls-4" d="M99.92,47.66c-1.14.57-2.16.75-2.74.8h-4.54c-.88-.11-1.6-.61-1.84-.8l-1.32-1.21c-.79-.73-2.32-1.33-3.4-1.33h-9.12c-1.08,0-1.31.6-.52,1.33l2.71,2.5c.79.73,2.32,1.33,3.4,1.33h25.49c1.08,0,2.75-.38,3.72-.85l10.64-5.12h14.42c1.08,0,2.23-.84,2.56-1.86l6.55-20.19c.33-1.02-.28-1.86-1.35-1.86h-33.05c-1.08,0-2.23.84-2.56,1.86l-6.55,20.19c-.33,1.02.28,1.86,1.35,1.86h3.12l-6.98,3.36h0ZM115.02,41.12c0-.66.54-1.2,1.2-1.2s1.2.54,1.2,1.2-.54,1.2-1.2,1.2-1.2-.54-1.2-1.2ZM126.21,42.32c-.66,0-1.2-.54-1.2-1.2s.54-1.2,1.2-1.2,1.2.54,1.2,1.2-.54,1.2-1.2,1.2ZM114.85,31.89l1.21-3.67c.14-.41.6-.74,1.03-.74h14.09c.43,0,.67.33.54.74l-.08.25c-.14.41-.6.74-1.03.74h-12.24c-.43,0-.89.34-1.02.75l-.19.6c-.13.41.11.81.53.89l11.56,2.13c.42.08.66.48.52.89l-.04.11c-.14.41-.6.68-1.02.6l-13.33-2.4c-.42-.08-.66-.47-.53-.88ZM112.8,38.18l.1-.31c.13-.41.59-.74,1.02-.74h15.23c.43,0,.89-.33,1.03-.74l3.83-11.47c.14-.41.25-.74.25-.74s0,0,0,0c0,0,.34-.09.76-.2l4.12-1.03c.42-.1.65.15.52.55l-.1.31c-.13.41-.58.83-1,.94l-2.13.53c-.42.1-.87.52-1.01.93l-3.41,10.19c-.14.41-.25.74-.24.74s-.1.34-.24.74l-.1.31c-.13.41-.59.75-1.02.75h-17.08c-.43,0-.67-.34-.54-.75Z"/>
    <path class="cls-4" d="M185.62,40.43h-.01s2.35,1.48,2.35,1.48h0s.53.42,1.58.47h30.51c.59,0,.67-.26.17-.57l-2.16-1.36c-.5-.32-1.4-.57-1.99-.57h-30.56c-.21.07-.35.22.11.56Z"/>
    <path class="cls-4" d="M215.46,44.39c-.5-.32-1.4-.57-1.99-.57h-21.77c-.18.06-.3.18-.02.44l2.87,1.81c.27.12.69.24,1.26.26,0,0,.02,0,.03,0h21.62c.59,0,.67-.26.17-.57l-2.16-1.36Z"/>
  </g>
  <g>
    <path class="cls-1" d="M29.41,38.72c.79,0,1.43.65,1.43,1.44s-.64,1.44-1.43,1.44-1.42-.65-1.42-1.44.63-1.44,1.42-1.44ZM29.41,41.31c.62,0,1.11-.5,1.11-1.16s-.49-1.15-1.11-1.15-1.11.5-1.11,1.15.49,1.16,1.11,1.16ZM29.23,40.93h-.3v-1.56h.54c.3,0,.53.21.53.49,0,.22-.14.4-.34.46l.35.61h-.34l-.33-.58h-.12v.58ZM29.43,40.09c.18,0,.27-.09.27-.23,0-.15-.1-.24-.27-.24h-.2v.47h.2Z"/>
    <g>
      <path class="cls-1" d="M36.3,27.8c-.77,0-1.31.37-1.8.78l-.35.51-.13-.09.43-.73v-.46h-2.74v9.08h2.49v-5.76c0-.93.63-1.23,1.06-1.29.41-.05.94.17.94.68v6.36h2.49v-6.26c0-1.93-.88-2.83-2.38-2.83"/>
      <polygon class="cls-1" points="8.47 34.94 11.09 34.94 11.09 36.89 5.98 36.89 5.98 27.81 8.47 27.81 8.47 34.94"/>
      <polygon class="cls-1" points="0 36.89 5.11 36.89 5.11 35.11 2.49 35.11 2.49 33.08 5.11 33.08 5.11 31.37 2.49 31.37 2.49 29.67 5.11 29.67 5.11 27.81 0 27.81 0 36.89"/>
      <polygon class="cls-1" points="11.96 36.89 17.07 36.89 17.07 35.11 14.46 35.11 14.46 33.08 17.07 33.08 17.07 31.37 14.46 31.37 14.46 29.67 17.07 29.67 17.07 27.81 11.96 27.81 11.96 36.89"/>
      <polygon class="cls-1" points="25.72 36.89 30.83 36.89 30.83 35.11 28.21 35.11 28.21 33.08 30.83 33.08 30.83 31.37 28.21 31.37 28.21 29.67 30.83 29.67 30.83 27.81 25.72 27.81 25.72 36.89"/>
      <polygon class="cls-1" points="22.48 27.81 22.48 27.81 22.48 27.82 21.52 33.57 21.45 34.56 21.44 34.65 21.35 34.65 21.35 34.56 21.28 33.57 20.31 27.82 20.31 27.81 17.8 27.81 19.87 36.89 22.92 36.89 24.99 27.81 22.48 27.81"/>
    </g>
    <g>
      <path class="cls-3" d="M32.46.02H0v12.88h17.13C20.95,7.33,26.25,2.85,32.46.02Z"/>
      <polygon class="cls-2" points="12.9 51.52 25.78 51.52 25.79 38.65 12.92 38.65 12.9 51.52"/>
      <path class="cls-2" d="M38.68,12.93V0c-12.3,3.38-21.9,13.28-24.84,25.75h13.18c1.98-5.7,6.23-10.33,11.66-12.83Z"/>
    </g>
  </g>
</svg>