<svg width="345" height="499" viewBox="0 0 345 499" xmlns="http://www.w3.org/2000/svg" xmlns:xlink="http://www.w3.org/1999/xlink">
    <defs>
        <path d="M20 0h305c11.046 0 20 8.954 20 20v458.333c0 11.046-8.954 20-20 20H20c-11.046 0-20-8.954-20-20V20C0 8.954 8.954 0 20 0z" id="jj91jkb50a"/>
        <path id="xf1yyngtmb" d="M0 0h34.461v8.638H0z"/>
    </defs>
    <g fill="none" fill-rule="evenodd">
        <use fill="#FC5C05" xlink:href="#jj91jkb50a"/>
        <path d="M225.993 356.5h49.222c3.594 0 6.535-2.905 6.535-6.456V250.83c0-3.55-2.94-6.456-6.535-6.456h-49.222c-3.594 0-6.535 2.905-6.535 6.456v99.213c0 3.55 2.94 6.456 6.535 6.456" fill="#F4EAE2"/>
        <path d="M226.148 243.81c-3.472 0-6.297 2.822-6.297 6.292v99.713c0 3.47 2.825 6.293 6.297 6.293h48.912c3.472 0 6.297-2.823 6.297-6.293v-99.713c0-3.47-2.825-6.293-6.297-6.293h-48.912zM275.06 356.5h-48.912c-3.689 0-6.69-2.999-6.69-6.685v-99.713c0-3.687 3.001-6.685 6.69-6.685h48.912c3.689 0 6.69 2.998 6.69 6.685v99.713c0 3.686-3.001 6.685-6.69 6.685z" fill="#3D3D3D"/>
        <path d="M227.233 353.625h45.784c2.695 0 4.9-2.224 4.9-4.942v-96.491c0-2.718-2.205-4.942-4.9-4.942h-45.784c-2.695 0-4.9 2.224-4.9 4.942v96.491c0 2.718 2.205 4.942 4.9 4.942" fill="#FEC432"/>
        <path d="M255.682 251.083H243.61c-.106 0-.192-.214-.192-.479s.086-.479.192-.479h12.073c.107 0 .193.214.193.48 0 .264-.086.478-.193.478M169.625 285.583c0 11.115-8.367 20.125-18.687 20.125-10.321 0-18.688-9.01-18.688-20.125 0-11.114 8.367-20.125 18.688-20.125 10.32 0 18.687 9.01 18.687 20.125" fill="#3D3D3D"/>
        <path d="m138.303 331.996 4.226-16.641 8.259-1.634 5.759-14.729 17.864-15.983s1.039-31.25-25.712-29.97c-26.75 1.278-44.389 36.626-44.389 36.626s-19.309 4.23-29 17.845c-9.69 13.615-15.028 52.734-15.893 66.24h74.874l.21-15.556 23.153-9.654-.454-19.296c-5.645.287-12.061 1.317-18.897 2.752" fill="#2AC086"/>
        <path d="M100.991 369.917a27.53 27.53 0 0 1-4.357-.335c-4.407-.703-8.27-2.621-10.878-5.4-2.715-2.895-4.43-6.95-5.396-12.764a61.119 61.119 0 0 1 2.318-29.285.196.196 0 0 1 .247-.123.193.193 0 0 1 .125.244 60.734 60.734 0 0 0-2.304 29.101c.954 5.735 2.637 9.727 5.297 12.563 2.55 2.717 6.333 4.593 10.654 5.283 3.54.565 7.394.406 12.132-.5 8.589-1.64 16.912-5.131 24.071-10.095a.198.198 0 0 1 .273.047.192.192 0 0 1-.048.27c-7.203 4.994-15.579 8.507-24.222 10.158-2.924.559-5.518.836-7.912.836M109.44 340.208a.183.183 0 0 1-.06-.01.198.198 0 0 1-.12-.249c3.155-9.84 6.417-20.014 8.584-30.318.506-2.409.912-4.757.327-7.005-.545-2.092-2.368-4.266-4.663-4.188-.103.01-.192-.081-.196-.19a.194.194 0 0 1 .183-.204c2.493-.093 4.459 2.24 5.041 4.48.607 2.331.174 4.83-.322 7.191-2.171 10.324-5.437 20.51-8.595 30.359a.19.19 0 0 1-.18.134" fill="#F4EAE2"/>
        <path d="M105.615 342.125a.197.197 0 0 1-.19-.132.186.186 0 0 1 .13-.235l31.23-9.208a.2.2 0 0 1 .248.123.186.186 0 0 1-.13.235l-31.23 9.209a.214.214 0 0 1-.058.008M151.168 318.845l-.71-5.47 3.546 4.505c.73.927-.013 2.203-1.28 2.203-.796 0-1.465-.532-1.556-1.238" fill="#F4EAE2"/>
        <path d="m149.964 314.352.553 5.123c.071.661.593 1.16 1.212 1.16.464 0 .87-.265 1.083-.707a1.37 1.37 0 0 0-.084-1.358l-2.764-4.218zm1.765 6.69c-.812 0-1.495-.654-1.589-1.52l-.639-5.92a.206.206 0 0 1 .121-.214.182.182 0 0 1 .223.074l3.193 4.874c.35.535.391 1.2.11 1.78-.28.58-.81.926-1.419.926z" fill="#3D3D3D"/>
        <path fill="#00BE75" d="m156.208 258.163 14.375-14.746-5.913 18.208zM149.156 258.51l.344-18.927-11.5 19.218s3.755 4.385 11.156-.29"/>
        <path d="M145.374 259.708c-1.42 0-2.835-.176-4.228-.528-.263-.067-1.065-.27-1.208-.948-.076-.356.07-.7.176-.952l1.273-3.016a.19.19 0 0 1 .255-.103.207.207 0 0 1 .099.268l-1.274 3.016c-.11.259-.196.49-.152.698.061.29.363.5.922.642 2.097.53 4.245.653 6.384.367.411-.056.874-.14 1.16-.45.374-.404.354-1.092.307-1.705l-.293-3.778a.2.2 0 0 1 .177-.218c.106-.009.2.074.209.186l.292 3.777c.055.702.072 1.495-.416 2.022-.372.403-.911.505-1.387.569-.765.102-1.531.153-2.296.153M154.61 329.086c5.572-.876 21.24-1.74 21.722 16.092.034 1.255-.958 2.295-2.203 2.295h-12.41l-8.81 2.256c-1.34.343-2.603-.777-2.436-2.16l1.966-16.22a2.601 2.601 0 0 1 2.171-2.263" fill="#F4EAE2"/>
        <path d="M151.614 350.75a.196.196 0 0 1-.049-.386l9.224-2.323a.195.195 0 0 1 .049-.006h12.99c.573 0 1.108-.224 1.508-.63.403-.412.617-.956.601-1.531-.161-5.854-1.975-10.252-5.39-13.072-5.483-4.525-13.799-3.82-17.12-3.307a.199.199 0 0 1-.226-.163.196.196 0 0 1 .165-.224c4.191-.647 12.03-1.068 17.434 3.393 3.507 2.895 5.368 7.39 5.532 13.362a2.471 2.471 0 0 1-.713 1.814 2.49 2.49 0 0 1-1.79.75h-12.967l-9.199 2.317a.2.2 0 0 1-.049.006" fill="#3D3D3D"/>
        <path d="M168.483 347.875c-.094 0-.174-.077-.183-.179l-.027-.3c-.23-2.255-1.112-4.42-2.5-6.127-1.451-1.783-3.435-3.041-5.586-3.544-.1-.024-.163-.13-.141-.236.022-.107.12-.174.219-.151 2.228.521 4.282 1.824 5.784 3.67 1.4 1.721 2.303 3.892 2.57 6.16a.216.216 0 0 1 .007.04l.013.148c.01.102.02.203.027.305.008.108-.066.204-.167.213a.15.15 0 0 1-.016.001M173.267 347.875a.192.192 0 0 1-.188-.165c-.473-3.057-.961-6.219-2.341-9.033-1.514-3.088-4.021-5.237-6.707-5.75a.195.195 0 0 1-.153-.227.192.192 0 0 1 .223-.155c2.802.534 5.411 2.762 6.979 5.958 1.406 2.868 1.899 6.06 2.376 9.147a.194.194 0 0 1-.189.225M207.073 352.667H162.25c-1.748 0-3.166-1.152-3.166-2.572 0-.697.695-1.262 1.553-1.262h51.156c0 2.117-2.113 3.834-4.719 3.834" fill="#3D3D3D"/>
        <path d="m213.303 348.304 21.109-39.101a3.158 3.158 0 0 0-1.248-4.265 1.523 1.523 0 0 0-2.074.617L207 350.179a4.627 4.627 0 0 0 6.303-1.875M261.148 280.792h-47.92c-5.557 0-10.061-4.499-10.061-10.048v-.988c0-5.55 4.504-10.048 10.06-10.048h47.92c5.557 0 10.061 4.499 10.061 10.048v.988c0 5.55-4.504 10.048-10.06 10.048" fill="#3D3D3D"/>
        <path d="M228.083 270.73a2.396 2.396 0 1 1-4.791 0 2.396 2.396 0 0 1 4.791 0M239.583 270.73a2.396 2.396 0 1 1-4.791 0 2.396 2.396 0 0 1 4.791 0M247.73 273.125a2.396 2.396 0 1 1 0-4.792 2.396 2.396 0 0 1 0 4.792z" fill="#F4EAE2"/>
        <path d="M237.86 309.542a.193.193 0 1 1 0-.387c12.891 0 23.379-10.487 23.379-23.379a.193.193 0 1 1 .386 0c0 13.105-10.661 23.766-23.765 23.766" fill="#3D3D3D"/>
        <path d="M204.473 290.375H178.86c-4.042 0-7.32 3.2-7.32 7.146v11.583c0 3.947 3.278 7.146 7.32 7.146h25.612c4.042 0 7.319-3.2 7.319-7.146V297.52c0-3.947-3.277-7.146-7.32-7.146" fill="#F4EAE2"/>
        <path d="M178.203 290.764c-3.984 0-7.224 3.19-7.224 7.109v11.837c0 3.92 3.24 7.109 7.224 7.109h25.97c3.983 0 7.223-3.189 7.223-7.109v-11.837c0-3.92-3.24-7.109-7.223-7.109h-25.97zm25.97 26.444h-25.97c-4.202 0-7.62-3.363-7.62-7.498v-11.837c0-4.135 3.418-7.498 7.62-7.498h25.97c4.2 0 7.619 3.363 7.619 7.498v11.837c0 4.135-3.418 7.498-7.62 7.498z" fill="#3D3D3D"/>
        <path fill="#3D3D3D" d="m194.063 280.792-9.105 21.914h9.785l-8.643 21.21 17.067-25.594h-10.024l7.883-17.53zM207.756 338.292c-8.343 0-15.131-6.788-15.131-15.131a.202.202 0 1 1 .404 0c0 8.12 6.607 14.726 14.727 14.726a.202.202 0 1 1 0 .405M247.054 240.542a.194.194 0 0 1-.196-.191v-8.052h-31.995a.194.194 0 0 1-.196-.191c0-.106.088-.191.196-.191h32.19c.11 0 .197.085.197.19v8.244a.194.194 0 0 1-.196.19M249.93 379.5h-41.966a.193.193 0 0 1-.195-.192v-19.55h-66.7a.193.193 0 0 1-.194-.191c0-.106.087-.192.195-.192h66.894c.107 0 .194.086.194.192v19.55h41.578v-19.55c0-.106.087-.192.194-.192.108 0 .195.086.195.192v19.741a.193.193 0 0 1-.195.192"/>
        <path fill="#F4EAE2" d="M277.917 340.208H235.75v-19.166h41.826zM277.917 321.042h8.625v19.166h-8.281z"/>
        <path d="M286.353 341.167h-7.918c-.105 0-.19-.09-.19-.201 0-.111.085-.201.19-.201h7.729v-19.322h-8.058c-.105 0-.19-.09-.19-.2 0-.112.085-.201.19-.201h8.247c.104 0 .189.09.189.2v19.724c0 .11-.085.2-.19.2" fill="#3D3D3D"/>
        <path d="M239.583 328.23h31.625-31.625z" fill="#F4EAE2"/>
        <path d="M271.011 328.708h-31.23c-.11 0-.198-.214-.198-.479s.089-.479.197-.479h31.231c.109 0 .197.214.197.48 0 .264-.088.478-.197.478" fill="#3D3D3D"/>
        <path d="M247.25 331.104h23.958-23.958z" fill="#F4EAE2"/>
        <path d="M271.01 331.583h-23.561c-.11 0-.199-.214-.199-.479s.089-.479.199-.479h23.56c.11 0 .2.214.2.48 0 .264-.09.478-.2.478" fill="#3D3D3D"/>
        <path d="M244.375 333.98h25.875-25.875z" fill="#F4EAE2"/>
        <path d="M271.013 334.458H244.57c-.108 0-.195-.214-.195-.479s.087-.479.195-.479h26.443c.108 0 .195.214.195.48 0 .264-.087.478-.195.478M283.667 331.104a5.27 5.27 0 1 1-10.542 0 5.27 5.27 0 0 1 10.542 0" fill="#3D3D3D"/>
        <g>
            <text font-family="FZLTTHB--B51-0, Lantinghei TC" font-size="31" font-weight="600" letter-spacing="5.952" fill="#FFF" transform="translate(133.208 .958)">
                            <tspan x="23" y="48.354">！</tspan>
                        </text>
            <path d="M169.27 13.04a10.467 10.467 0 0 1 7.913 1.396 10.5 10.5 0 0 1 3.214 3.214l16.46 25.835a10.467 10.467 0 0 1 1.396 7.915 10.467 10.467 0 0 1-4.61 6.583 10.5 10.5 0 0 1-5.642 1.644h-32.92c-2.899 0-5.524-1.175-7.424-3.075a10.467 10.467 0 0 1-3.075-7.425 10.5 10.5 0 0 1 1.644-5.642l16.46-25.835a10.467 10.467 0 0 1 6.583-4.61z" stroke="#FFF" stroke-width="3"/>
            <path stroke="#FFF" stroke-width="2" stroke-linecap="round" stroke-linejoin="round" d="M61.333 121.23 276 120.75"/>
            <path d="M77.176 110.059c3.993-4.892 6.04-10.283 6.14-16.172h5.09c0 2.695-.1 4.891-.3 6.588 0 2.196-.798 3.195-2.395 2.995-1.997 0-3.394-.05-4.193-.15.5 2.097.899 4.043 1.198 5.84 2.196 0 4.043-.05 5.54-.15 3.694-.1 5.59-2.395 5.69-6.888.1-1.896.25-4.99.45-9.283.1-2.396.15-3.944.15-4.642H83.465l.15-3.444h12.128v-5.69h-7.936V74.12h-5.99v4.941H74.78v5.69h2.995c0 .8-.05 2.097-.15 3.894 0 1.697-.05 2.945-.15 3.743 0 5.59-1.896 10.183-5.69 13.776.1.1.3.25.6.45 1.996 1.297 3.593 2.445 4.79 3.444zm-10.931-.45v-9.583l.898 3.893c1.198 0 2.047-.05 2.546-.15 3.893-.499 5.79-2.845 5.69-7.037-.1-2.795-1.148-5.241-3.145-7.337.4-1.298.849-2.945 1.348-4.942.5-1.797.849-3.045 1.048-3.743v-5.391H60.704v34.29h5.54zm1.647-11.53h-1.647V80.71h2.695c-.2.9-.549 2.446-1.048 4.643-.5 1.996-.849 3.493-1.048 4.492 1.797 2.495 2.695 4.442 2.695 5.84.1 1.497-.45 2.296-1.647 2.395zm63.363 11.38v-6.438h9.433v-5.39h-9.433v-3.894h8.684v-5.39h-8.684v-3.894h10.182v-5.39H128.26c.399-1.298.898-2.696 1.497-4.193l-5.99-1.048c-.998 3.793-2.295 7.137-3.893 10.032v-3.743H105.2v4.642h14.225c-.3.3-.599.698-.898 1.198h-12.429v4.042h12.728v-1.796l.45.449c1.097 1.298 1.946 2.346 2.545 3.144a57.587 57.587 0 0 0 3.444-5.69v23.36h5.99zm-12.878-30.846V74.57h-11.53v4.043h11.53zm.45 16.771v-4.193h-12.729v4.193h12.728zm-7.937 14.225v-1.497h3.294v1.497h4.642V96.582h-12.578v13.027h4.642zm3.294-5.69h-3.294v-2.845h3.294v2.845zm52.432 5.99a41.08 41.08 0 0 0 2.695-8.386v8.236h3.744v-6.289h1.347v5.091h2.995v-5.09h1.497v4.79h2.097l.45 1.348h2.694c2.097-.1 3.095-1.297 2.995-3.593V92.689h-16.62c.099-.5.149-.998.149-1.498h16.321v-9.433H170.81V79.96c5.29-.3 11.03-.799 17.22-1.497l-1.947-4.343c-5.99.899-12.628 1.497-19.915 1.797v13.327c0 3.793-.4 7.337-1.198 10.631V91.94h-2.546v-1.797h2.096V86.7h-2.096v-1.797h2.096v-3.444h-2.096v-1.797h2.546V75.17h-13.327v22.012h4.492v-.749h5.091v7.038c0 1.298-.599 1.947-1.797 1.947h-2.545l-.45-7.637h-1.946c0 .699.05 1.747.15 3.144.1 2.696.2 4.742.3 6.14l2.095-.15.6 2.845c.798 0 1.896-.05 3.294-.15 1.397-.1 2.396-.599 2.995-1.497.2.1.598.35 1.197.749.6.399 1.099.748 1.498 1.048zm-8.236-28.45h-2.246V79.66h2.246v1.797zm0 5.24h-2.246v-1.797h2.246V86.7zm24.258.749h-11.83V85.65h11.83v1.797zM158.38 91.94h-2.246v-1.797h2.246v1.797zm24.857 7.637h-1.348v-2.845h1.348v2.845zm-4.343 0h-1.497v-2.845h1.497v2.845zm-4.492 0h-1.347v-2.845h1.347v2.845zm-14.524 3.444 1.197-.15c-.1-.699-.299-1.747-.598-3.144-.3-1.298-.5-2.147-.6-2.546l-1.048.15c.1.399.2.998.3 1.797.4 1.697.649 2.994.749 3.893zm-2.247 1.797 1.648-.3c-.1-.998-.3-2.695-.6-5.09-.1-.9-.199-1.548-.299-1.948l-1.497.15c.4 3.095.649 5.49.748 7.188zm-4.192 3.593c.4-4.192.649-7.736.748-10.631l-2.845-.15c-.2 4.892-.499 8.386-.898 10.482l2.995.3zm28.75-2.395h-.3v-2.546h1.348v1.797c0 .5-.35.749-1.048.749zm15.296 3.593c1.597 0 2.895-.1 3.893-.3 2.795-.199 4.143-1.896 4.043-5.09v-7.637c.799-.2 1.547-.35 2.246-.45-.1-1.197-.15-3.144-.15-5.839-.2 0-.549.05-1.048.15-.399.1-.748.2-1.048.3V85.95h2.546v-5.54h-2.546v-6.44h-5.39v6.44h-3.145v5.54h3.145v5.69c-1.198.1-2.396.25-3.594.449l.599 6.289c.399-.1.898-.2 1.497-.3.699-.2 1.198-.3 1.498-.3v4.793c0 1.098-.5 1.647-1.498 1.647h-1.946c.499 1.697.798 3.494.898 5.39zm33.242-19.166V75.169h-20.963v15.274h20.963zm-5.39-9.434h-10.183v-1.647h10.183v1.647zm0 5.241h-10.183v-1.647h10.183v1.647zm-15.573 23.809c1.297-1.598 2.296-3.045 2.994-4.343 1.897 2.296 4.542 3.394 7.937 3.294 2.296.1 6.04.15 11.23.15l.45-1.797c.299-1.198.548-2.046.748-2.545h-9.883v-2.097h8.236V98.23h-8.236v-1.797h9.434V91.79h-24.558v4.642h9.584v7.787c-1.398-.899-2.546-2.097-3.444-3.594.2-.898.35-1.947.449-3.145l-5.24-.449c-.1 4.293-1.498 7.637-4.194 10.033a58.506 58.506 0 0 1 4.493 2.995zm37.757-.3v-1.947h7.337v1.947h4.342V99.277c.7.6 1.148 1.049 1.348 1.348l.122.122.367.367.11.11.898-1.348v2.696h5.241v1.946H260.1v4.193h18.418v-4.193h-6.29v-1.946h4.792v-4.043h-4.791v-1.797h5.54v-4.343h-5.54v-2.096h4.941V75.169h-16.321v15.124h6.438v2.096h-1.946c.2-.3.3-.698.3-1.198l-4.343-.449c-.2 2.196-.899 4.093-2.097 5.69V82.956h-3.144V79.81h3.594V75.32h-17.37v4.492h4.193v3.145h-3.295v26.803h4.343zm24.857-28.6h-6.589V79.66h6.589v1.498zm-20.515 1.797h-1.198V79.81h1.198v3.145zm20.514 3.144h-6.588v-1.497h6.589V86.1zm-17.519 11.38h-7.337v-2.096c.499.3.948.699 1.347 1.198 1.298-2.795 1.897-5.84 1.797-9.134h1.198v5.091c0 2.096.899 3.145 2.695 3.145h.3v1.796zm-8.236-3.593v-6.44h1.498c-.1 2.896-.6 5.042-1.498 6.44zm9.134-1.647h-.3c-.698 0-1.047-.4-1.047-1.198v-3.594h1.347v4.792zm11.53 6.289h-4.342l.898-1.797h3.444v1.797zm-12.428 5.24h-7.337v-2.096h7.337v2.097z" fill="#FFF" fill-rule="nonzero"/>
        </g>
        <path d="M156.447 140.504v-1.493h-6.525v-.472h7.704v-1.73h-7.704v-1.021h-3.144v1.022h-7.704v1.73h7.704v.47h-6.604v1.494h16.273zm.393 4.088v-3.616h-16.98v3.616h16.98zm-2.987-1.415h-1.808v-.786h1.808v.786zm-9.198 0h-1.73v-.786h1.73v.786zm4.56 0h-1.73v-.786h1.73v.786zm7.782 11.635.787-2.044a4.73 4.73 0 0 1-.708-.079 211.49 211.49 0 0 0-5.424-.55h4.402v-6.996h-15.33v6.996h4.481c-1.991.21-4.087.42-6.289.63.315.733.603 1.414.865 2.043 3.407-.472 5.922-.839 7.547-1.1l-.943-1.573h3.694l-.707 1.572c2.62.315 5.162.682 7.625 1.101zm-4.087-7.547h-9.12v-.629h9.12v.63zm0 1.73h-9.12v-.63h9.12v.63zm0 1.65h-9.12v-.55h9.12v.55zm14.318-7.704v-4.323l1.886-1.887-2.987-.943c-1.1 1.31-2.594 2.437-4.48 3.38.209.42.445 1.1.707 2.044.104.367.183.603.235.707.577-.314 1.101-.628 1.573-.943v1.965h3.066zm10.14-.078c1.573.052 2.516-.472 2.83-1.572.158-.42.315-1.022.473-1.809a16.764 16.764 0 0 1-2.359-.707c.524-.157 1.127-.34 1.808-.55l-1.258-1.887a52.15 52.15 0 0 1-5.267 1.258v-1.73h-3.066v4.403c0 1.729.918 2.594 2.752 2.594h4.088zm-.723-2.194-.141-.007h-1.965c-.682.052-.996-.184-.944-.708 1.049-.157 2.411-.472 4.088-.943v.471a2.15 2.15 0 0 0-.078.472c-.105.524-.472.76-1.101.708l.14.007zm1.982 10.998v-8.254H163.69v8.254h14.937zm-3.066-5.974h-8.805v-.629h8.805v.629zm0 2.122h-8.805v-.628h8.805v.628zm0 2.202h-8.805v-.63h8.805v.63zm-12.814 4.795c2.41-.367 4.874-.786 7.39-1.258l-.944-1.808c-.262.053-.681.105-1.258.157-2.673.315-4.743.498-6.21.55.419.892.76 1.678 1.022 2.359zm17.059-.079.786-2.2c-.315-.053-.865-.106-1.651-.158-2.62-.262-4.586-.445-5.896-.55l-.865 1.73c.944.156 2.62.418 5.032.785.87.145 1.553.253 2.047.323l.301.04.246.03zm10.702.158c1.677-.524 3.04-1.049 4.088-1.573 1.362.577 3.93.97 7.704 1.18.367-.944.786-1.835 1.257-2.673-3.092 0-5.319-.105-6.682-.315.472-.576.786-1.415.944-2.515h2.28v1.022h2.672v-9.984h-4.716v-.944h5.267v-2.515H190.35v2.515h4.874v.944h-4.795v9.826h.55l-.786.708c.262.21.603.498 1.022.865.262.21.446.367.55.471-.733.21-1.65.367-2.751.472v-12.106c.472-1.258.865-2.49 1.18-3.695l-2.988-.786a34.905 34.905 0 0 1-2.909 8.333c.157.89.288 2.07.393 3.537.053.367.079.63.079.786.472-.681.943-1.415 1.415-2.2v8.41h2.83v-2.122c.105.157.262.42.472.786.471.682.812 1.206 1.022 1.573zm4.716-11.478h-2.043v-1.022h2.043v1.022zm4.875 0h-2.044v-1.022h2.044v1.022zm0 3.223h-2.123v-.471c.052-.262.079-.472.079-.63h2.044v1.101zm-4.953 0h-1.965v-1.1h2.043c0 .157-.026.367-.078.629v.471zm-1.1 4.01a12.55 12.55 0 0 1-1.337-.787h.472v-.864h1.808a3.499 3.499 0 0 1-.944 1.65zM70.25 183.248v-8.805c1.206.943 3.014 2.594 5.425 4.953l2.515-2.673c-.471-.367-1.153-.891-2.044-1.573a205.268 205.268 0 0 1-3.852-3.066l-2.044 2.044v-1.808h-1.257a24.539 24.539 0 0 0 2.122-3.38h6.525v-3.145H59.716v3.145h7.468c-1.624 2.935-4.402 5.53-8.333 7.783.42.524.97 1.336 1.651 2.437.158.262.289.445.393.55 2.359-1.467 4.298-3.014 5.818-4.638v8.176h3.537zm29.176-7.233v-5.581c.21.052.472.13.786.235.053-.21.158-.576.315-1.1.262-.734.445-1.284.55-1.651-2.935-.629-5.45-1.572-7.547-2.83l.63-.55h-4.167c-1.782 1.467-4.612 2.699-8.49 3.694.471 1.258.76 2.15.864 2.673.105-.052.262-.105.472-.157.157-.052.288-.079.393-.079v5.346h16.194zm-6.132-8.097H89.6c.733-.42 1.362-.812 1.886-1.18.21.106.524.289.944.551.367.262.655.472.864.629zm5.189 2.201H84.726c1.1-.42 2.096-.812 2.987-1.18v.551h7.232v-.786c1.049.472 2.228.943 3.538 1.415zm-1.965 4.01h-1.73c.157-.158.42-.394.786-.708.367-.315.603-.524.708-.629l-1.18-.786h1.416v2.122zm-8.726 0h-1.73v-2.123h1.415l-1.18.786c.158.157.42.393.787.708.367.314.603.524.708.628zm2.122 0h-1.572l1.336-1.023c-.629-.471-1.1-.838-1.415-1.1h1.651v2.122zm4.245 0h-1.415v-2.123h1.651c-.21.157-.498.393-.865.707-.262.158-.445.289-.55.393l1.18 1.022zm-7.154 9.276v-.55h8.648v.55h2.987v-6.761H84.018v6.76h2.987zm8.648-4.324h-8.648v-.629h8.648v.63zm0 2.044h-8.648v-.629h8.648v.629zm27.997-8.254v-1.966h-4.56v-.707h3.852v-1.73h-3.852v-.707h4.245v-1.966h-4.245v-1.179h-2.909v1.18h-3.93v1.965h3.93v.707h-3.773v1.73h3.773v.707h-4.245v1.966h11.714zm-12.5-5.74v-2.122h-5.896v2.123h5.896zm.708 3.145v-2.437h-7.39v2.437h7.39zm-.472 2.752v-2.123h-6.446v2.123h6.446zm3.852 10.298v-2.909h4.795c-.052.472-.366.708-.943.708h-2.122c.21.576.419 1.284.628 2.123 1.363 0 2.254-.027 2.673-.08 1.835 0 2.7-.942 2.595-2.83V173.5h-10.456v9.826h2.83zm-3.852-7.468v-2.123h-6.446v2.123h6.446zm8.647.314h-4.795v-.707h4.795v.707zm-12.656 7.154v-.786h1.572v.786h2.358v-6.76h-6.289v6.76h2.359zm12.656-4.638h-4.795v-.708h4.795v.708zm-11.084 1.73h-1.572v-1.573h1.572v1.572zm23.359-4.246v-8.018a19.006 19.006 0 0 0 1.65-2.83l-2.987-.944c-.89 2.044-2.122 3.8-3.695 5.267.262.682.524 1.625.787 2.83.052.21.104.367.157.472l1.179-1.179v4.402h2.909zm4.795 3.695 2.594-1.73a46.035 46.035 0 0 0-.943-1.179 1.83 1.83 0 0 0-.315-.471h.236c1.625-.105 2.411-1.022 2.359-2.752v-1.808c.367.472.943 1.232 1.73 2.28.523.681.916 1.205 1.178 1.572l2.437-1.808a7.85 7.85 0 0 0-.707-.786 58.108 58.108 0 0 0-2.201-2.594l1.415.393.943-1.965v-2.83h-7.783c.105-.158.236-.42.393-.787.105-.262.184-.445.236-.55l-3.066-.314c-.628 1.677-1.624 3.223-2.987 4.638.315.262.839.655 1.572 1.179.315.262.55.445.708.55a40.679 40.679 0 0 1-2.516 3.066l2.201 1.887c.472-.577.891-1.127 1.258-1.651.053.21.131.498.236.865l.236.943-1.258.786c.891 1.206 1.572 2.228 2.044 3.066zm.079-5.817h-1.18c.263-.367.656-.891 1.18-1.572l.707-.944-2.28-1.336c.367-.42.708-.865 1.022-1.337h6.132l-.707 1.337.786.236-1.808 1.336v-2.28h-2.988v3.695c.053.577-.235.865-.864.865zm1.886 8.962c1.73.052 2.778-.524 3.145-1.73.157-.367.314-.865.472-1.493.157.21.393.55.707 1.022.262.419.472.733.629.943l2.673-1.415a7.087 7.087 0 0 0-.55-.865 253.68 253.68 0 0 0-2.595-3.773l-2.515 1.415c.314.471.602.943.864 1.415a21.117 21.117 0 0 0-1.1-.393 28.577 28.577 0 0 0-.865-.236c0 .105-.026.262-.078.472a8.636 8.636 0 0 1-.158 1.022c-.105.733-.576 1.074-1.415 1.021h-2.2c-.787 0-1.18-.445-1.18-1.336v-2.516h-3.066l-.001.708.001 2.83c-.05 1.923.827 2.893 2.633 2.91l.197-.001h4.402zm-9.04-.786c.524-1.101 1.127-2.752 1.808-4.953h-.001l-2.83-.865a47.448 47.448 0 0 1-1.397 3.985l-.332.81 2.752 1.023zm23.044 1.336c3.092-2.044 4.638-4.743 4.638-8.097h4.717v7.704h3.38v-7.704h3.38v-2.987h-3.38v-7.783h-3.38v7.783h-4.638v-3.617c.42-.052 1.074-.13 1.965-.236l1.887-.235-.786-2.909c-3.407.367-6.813.655-10.22.865v.236c.262 1.31.42 2.227.472 2.751a61.114 61.114 0 0 1 3.301-.236v3.38h-4.087v2.988h4.009c-.053 2.463-1.337 4.376-3.852 5.739a34.156 34.156 0 0 1 2.594 2.358zm25.01 0v-6.682l.864-.079c0 .262.053.472.158.63l2.043-.63a9.646 9.646 0 0 0-.314-.943 355.302 355.302 0 0 0-1.1-3.38l-1.573.55a666.69 666.69 0 0 1 2.987-4.245l-2.28-1.337c-.157.21-.392.577-.707 1.1l-.264.397-.68 1.019-.943-.629 1.18-1.65c.681-.997 1.231-1.757 1.65-2.28l-2.83-.865a18.84 18.84 0 0 0-.628 1.179c-.525 1.1-.944 1.887-1.258 2.358l-.393-.236-1.415 1.808 3.301 2.359c-.157.262-.419.629-.786 1.1l-1.1 1.651h-1.1l.628 2.516 2.123-.157v6.446h2.437zm5.66-.157c1.572-.839 2.83-1.704 3.773-2.594.891.733 1.913 1.52 3.066 2.358a313.3 313.3 0 0 1 1.65-2.673 19.553 19.553 0 0 1-2.75-1.965c.838-1.153 1.546-2.804 2.122-4.953v-2.909h-2.358l1.257-2.28v-2.908h-9.826v2.83h1.336c0 .943-.026 1.86-.078 2.751-.105 3.564-.656 6.316-1.651 8.255l-.55-1.887-1.416.393c.42 1.415.734 2.804.944 4.167l1.022-.393.864 1.65a17.38 17.38 0 0 0 1.258-2.122c.157.21.42.655.786 1.336.262.472.446.787.55.944zm2.515-12.736h-1.415l.079-2.358h2.673l-1.337 2.358zm-9.355 4.088c.315-.471.655-.943 1.022-1.415.053.158.105.367.158.63l.235.707c-.471.052-.943.078-1.415.078zm10.535 1.808a11.945 11.945 0 0 1-1.887-3.144h3.223c-.367 1.258-.812 2.306-1.336 3.144zm-4.717 4.088c.471-1.1.97-2.568 1.493-4.402.42.839.891 1.65 1.415 2.437-.786.681-1.755 1.336-2.908 1.965zm-7.94 2.359c.21-1.258.42-2.909.629-4.953l-1.651-.157a175.96 175.96 0 0 1-.865 4.952l1.887.158zm28.232-15.959v-2.122h-6.289v2.122h6.29zm7.311 16.273c1.258.053 2.07-.55 2.437-1.808 0-.105.027-.236.08-.393l.235-.943.236.786 2.044-.786c-.032-.105-.07-.228-.117-.368l-.102-.305a94.647 94.647 0 0 0-.803-2.236 14.547 14.547 0 0 1-.55-1.494l-2.044.708 1.1 3.066a16.356 16.356 0 0 0-2.044-.786c0 .104-.026.288-.078.55-.053.576-.105.917-.158 1.022-.052.472-.288.707-.707.707h-.63c-.523.053-.759-.183-.707-.707v-3.223c.158.21.341.55.55 1.022.263.419.446.76.551 1.022l2.044-1.415c-.262-.315-.629-.865-1.1-1.651-.263-.42-.472-.734-.63-.944.367 0 .839-.026 1.415-.078h.708c1.677-.105 2.542-1.1 2.594-2.988.053-1.415.131-3.642.236-6.682h-10.377v2.516h3.93c-.156 2.463-1.572 4.507-4.244 6.132.366.42.864.996 1.493 1.73-.105-.106-.026 0 .236.314 1.468-.996 2.594-2.07 3.38-3.223l.236.943c.06.27.112.496.154.68l.058.244.024.098-.236-.236-1.886 1.1.471.708h-2.2v.865l-1.416-.55c-.157.629-.524 1.703-1.1 3.223-.053.21-.105.367-.158.471v-3.93h-6.76v6.84h2.515v-.787h1.73v.786h2.515v-2.201l1.573.629c.104-.315.288-.786.55-1.415.21-.629.393-1.127.55-1.494v2.123c0 1.572.76 2.358 2.28 2.358h2.122zm-4.166-11.399 1.258-1.65c-.315-.21-.839-.55-1.572-1.023a22.315 22.315 0 0 0-1.18-.786l-.786 1.022v-1.65h-8.018v2.436h8.018v-.157c.839.577 1.599 1.18 2.28 1.808zm4.927.556-.132-.005h-1.415c.734-1.258 1.206-2.778 1.415-4.56h1.18c0 .472-.027 1.048-.079 1.73 0 .838-.026 1.467-.079 1.886 0 .681-.34.996-1.022.944l.132.005zm-7.757.545v-2.123h-6.918v2.123h6.918zm0 2.83v-2.201h-6.918v2.2h6.918zm-2.594 4.48h-1.73v-1.493h1.73v1.494zm36.958 2.595v-2.358h-2.908l.943-1.415-1.415-.472h1.887v-4.324c.105.105.288.262.55.472.052.052.105.079.157.079.315-.944.655-1.782 1.022-2.516-.786-.472-1.441-.996-1.965-1.572.681-.42 1.336-.865 1.965-1.337l-1.179-1.886a4.596 4.596 0 0 1-.472.393c-.681.524-1.205.89-1.572 1.1 0-.105-.052-.236-.157-.393-.053-.157-.105-.262-.157-.314l2.358-1.573-1.258-1.886c-.629.471-1.231.917-1.808 1.336a10.113 10.113 0 0 1-.314-1.65l-2.359.156.079.63h-5.267v2.28h3.144l-.102.204-.283.565-.086.173a9.79 9.79 0 0 0-.315.55l-1.415-1.257-1.494 1.65c.21.158.472.394.787.708.366.315.629.55.786.708-.63.524-1.284 1.074-1.966 1.65.42.944.734 1.783.944 2.516l.786-.629v4.167h1.808l-1.258.708.944 1.179h-2.673v2.358h12.263zm-13.128-15.801v-2.123h-5.346v2.123h5.346zm7.94 2.83h-1.808a21.42 21.42 0 0 0 1.022-2.201c.21.786.471 1.52.786 2.2zm-7.311.314v-2.437h-6.682v2.437h6.682zm-.472 2.752v-2.123h-5.817v2.123h5.817zm9.984.078h-6.446c.314-.314.55-.602.707-.864l.158-.158h4.716c.262.367.55.708.865 1.022zm-9.984 2.752v-2.123h-5.817v2.123h5.817zm8.805.629h-4.402v-1.18h4.402v1.18zm-12.421 6.84v-.787h1.494v.786h2.122v-6.76h-5.739v6.76h2.123zm10.77-2.752h-1.965l.943-.55-1.1-1.337h3.223l-1.101 1.887zm-9.276-.158h-1.494v-1.572h1.494v1.572zm37.119-6.69.108-.256c.364-.858.641-1.477.832-1.858-3.511-.42-6.08-1.206-7.704-2.359l.157-.157c.472-.629.812-1.074 1.022-1.336h1.572l-1.022.786a60.16 60.16 0 0 1 1.808 1.887l1.809-1.415a15.254 15.254 0 0 0-1.416-1.258h3.46v-2.123h-4.875l.236-.471c.053-.21.105-.367.158-.472l-2.91-.157c-.418.995-1.021 1.965-1.807 2.908v-1.808H246.9l.471-.943-2.987-.157c-.524 1.362-1.52 2.62-2.987 3.773.157.157.367.393.629.708a44.7 44.7 0 0 1 1.179 1.336 27.198 27.198 0 0 0 2.437-2.594h.943l-.943.707 1.572 1.573 1.73-1.337-1.101-.943h2.987l-.078.078-.236.236c.367.21.707.446 1.022.708h-1.73c-1.572 1.31-4.402 2.306-8.49 2.987.524.996.891 1.808 1.1 2.437a69.82 69.82 0 0 0 4.01-1.18v.944h9.12v-.943c1.1.367 2.436.707 4.008 1.022.367-.944.42-1.048.158-.315l.003-.008zm-6.45-1.643h-4.48c.785-.366 1.52-.786 2.2-1.257.787.524 1.547.943 2.28 1.257zm-1.493 11.557c1.415-.682 2.463-1.415 3.144-2.202a50.416 50.416 0 0 1 3.46 2.044l1.729-2.122a112.765 112.765 0 0 1-3.931-1.808c.052-.053.079-.105.079-.157.052-.053.078-.105.078-.158h2.359V174.6h-7.233v4.638h1.887c-.367 1.048-1.441 1.86-3.223 2.437l.786-.707c-.315-.157-.76-.393-1.337-.708l-.994-.497-.295-.148-.126-.062c0-.053.027-.105.079-.157v-.158h2.28V174.6h-7.233v4.638h1.966c-.42.996-1.625 1.887-3.616 2.673.471.315 1.1.76 1.886 1.337.157.157.288.262.393.314 1.31-.681 2.306-1.415 2.988-2.201.157.105.21.13.157.078.943.577 1.625 1.049 2.044 1.415l.865-1.021a29.42 29.42 0 0 1 1.808 1.808zm4.245-6.21h-1.966v-1.023h1.966v1.022zm-8.097 0h-1.966v-1.023h1.966v1.022zm22.1 5.974v-.55h8.49v.55h3.067v-7.233h-6.604l.786-.393c.367-.157.63-.262.786-.314h6.761v-2.044h-2.83a115.97 115.97 0 0 0 2.594-1.415l-1.965-1.73c-.367.262-.943.63-1.73 1.101-.471.262-.812.472-1.022.629v-1.337h-4.245v-.707h8.333v-4.717h-17.295v4.717h5.818v.707h-4.953v1.966h4.953v.786h-6.682v2.044h6.367c-1.834.629-4.009 1.231-6.525 1.808.02.098.047.219.081.361l.08.315c.043.171.095.366.154.582.21.681.34 1.153.393 1.415.21-.053.498-.131.865-.236.576-.157.995-.288 1.257-.393v4.088h3.066zm9.277-15.33h-1.73v-.943h1.73v.943zm-4.638 0h-1.809v-.943h1.809v.943zm-4.717 0h-1.73v-.943h1.73v.943zm5.739 5.346h-1.573v-.786h3.066c-.471.314-.838.524-1.1.629-.21.052-.341.104-.393.157zm2.83 5.424h-8.49v-.629c.052 0 .104-.026.157-.078h8.333v.707zm0 2.28h-8.49v-.708h8.49v.708zm-216.645 30.4v-2.593H58.25a37.88 37.88 0 0 0 1.1-1.415c.315-.42.577-.734.787-.944l-1.887-.943h2.516v-2.752h-6.21v-1.022h3.93v-1.336c.734.367 1.52.708 2.359 1.022.576-1.1 1.126-2.123 1.65-3.066-3.197-.786-5.738-2.227-7.625-4.324.052-.104.157-.235.314-.393.105-.21.184-.34.236-.393l-3.773-.236c-1.31 2.202-4.167 4.062-8.569 5.582.052.105.157.262.314.472.63 1.1 1.075 1.939 1.337 2.515.89-.42 1.703-.812 2.437-1.179v1.336h4.01v1.022h-6.29v2.752h2.516l-1.808 1.1c.628.787 1.179 1.52 1.65 2.202h-3.459v2.594h18.082zm-5.818-12.341h-6.368c1.31-.839 2.437-1.756 3.38-2.752a20.888 20.888 0 0 0 2.988 2.752zm-4.874 9.748h-2.358l1.415-.865-1.18-1.415c-.366-.42-.655-.76-.864-1.022h2.987v3.302zm5.66 0h-2.28v-3.302h2.752c-.262.367-.655.89-1.18 1.572l-.707.944 1.415.786zm24.831 2.754.179-.003h.786c1.258 0 1.991-.629 2.201-1.887a42.83 42.83 0 0 0 .393-3.144c-.21-.105-.524-.21-.943-.315a9.646 9.646 0 0 0-.944-.314c-.052.681-.104 1.494-.157 2.437 0-.157-.026-.026-.078.393-.053.367-.158.524-.315.472h-.157c-.105 0-.157-.079-.157-.236v-5.267l2.515-1.572a8.982 8.982 0 0 0-.786-.865 221.31 221.31 0 0 0-3.066-3.38h3.38v-2.673h-5.03v-2.123h-3.145v2.123h-5.031v2.672h3.066c-.158.158-.367.42-.63.787-.733.89-1.257 1.493-1.572 1.808h-1.179l.708 2.437c2.725-.158 5.974-.289 9.748-.393l.629.864h-2.437v5.975c-.053 1.52.68 2.254 2.2 2.201l-.178.003zm-12.4-13.367 1.966-2.516c-.262-.21-.629-.498-1.1-.865-.787-.68-1.416-1.179-1.887-1.493l-2.044 2.201c.838.629 1.86 1.52 3.066 2.673zm6.604 2.201a68.233 68.233 0 0 0 2.359-2.516h2.28l-1.887 1.022 1.022 1.337c-.42.052-1.049.078-1.887.078-.839.053-1.468.079-1.887.079zm-6.918 3.145 2.123-2.437c-.21-.158-.498-.394-.865-.708a54.252 54.252 0 0 0-2.28-1.73l-1.965 2.123c.996.891 1.65 1.494 1.965 1.808.472.42.813.734 1.022.944zm3.38 8.647c1.73-1.677 2.542-3.616 2.438-5.817v-2.988h-2.83v2.83c.052 1.677-.63 3.093-2.044 4.246.68.419 1.493.995 2.437 1.729zm6.368-.708v-8.097h-2.908v8.097H78.7zm-9.433.472c.576-2.306 1.179-4.586 1.808-6.84l-3.066-.864c-.734 3.092-1.337 5.398-1.808 6.918l3.066.786zm24.852.157c.734-.786 1.284-1.546 1.65-2.28.158.734.263 1.285.315 1.651v.236c.21 0 .55-.026 1.022-.078h.786c1.258-.053 1.966-.498 2.123-1.337l.472.708c.314.471.524.812.629 1.022.733-.734 1.284-1.415 1.65-2.044 0 .105.053.314.158.629.052.419.104.76.157 1.022h1.887c1.677.052 2.489-.839 2.437-2.673 0-1.52.026-3.014.078-4.481.053-.734.079-1.284.079-1.651h-3.46c.053-.262.08-.655.08-1.18h-2.359v1.18h-1.1v2.437h1.021c-.104 1.572-.602 2.883-1.493 3.93.052-.68.078-1.755.078-3.222.053-1.363.079-2.411.079-3.145h-3.302c0-.42.026-.812.079-1.18h-.472c2.568-1.1 4.01-2.541 4.324-4.323h2.909a5.729 5.729 0 0 0-.079.943c0 .525-.34.76-1.022.708h-2.358c.21.839.393 1.65.55 2.437 1.153 0 2.149-.026 2.987-.079 1.782 0 2.673-.864 2.673-2.594 0-.21.026-.55.079-1.022.104-1.31.157-2.28.157-2.909h-5.582c.053-.157.079-.445.079-.864.052-.315.079-.577.079-.786h-3.066a8.6 8.6 0 0 1-.079 1.022v.628H94.67v2.516h3.302c-.367.891-1.65 1.651-3.852 2.28a32.737 32.737 0 0 1 1.494 2.044h-.787v1.179h-1.336v2.437h1.18c-.106 1.887-.682 3.354-1.73 4.402v-9.355h1.1v-2.751h-1.1v-4.324h-2.83v4.324h-1.18v2.751h1.18v11.635h2.83v-2.201c.419.891.812 1.677 1.179 2.358zm9.984-2.908c-.262.052-.55.052-.865 0 .472-.891.734-2.201.786-3.931h1.1c0 .472-.025 1.074-.078 1.808v1.337c0 .576-.314.838-.943.786zm-6.878.085-.119-.007h-.943c.42-.838.707-2.175.865-4.009h.943c0 1.467-.026 2.568-.079 3.302.053.524-.21.76-.786.707l.119.007zm33.538-7.632v-1.965h-4.874v-.63h4.088v-1.65h-4.088v-.63h4.638v-1.965h-2.2l.864-1.336-2.909-.314-.943 1.65h-1.494l-1.022-1.65-2.83.314.865 1.336h-2.201v1.966h4.638v.629h-4.088v1.65h4.088v.63H118.5v1.965h12.263zm-13.128-5.896v-2.123h-5.346v2.123h5.346zm.629 3.144v-2.437h-6.682v2.437h6.682zm-.472 2.752v-2.123h-5.817v2.123h5.817zm10.655 10.38.194-.003c1.048 0 1.703-.524 1.965-1.572.052-.158.131-.42.236-.787.052-.262.105-.471.157-.629a16.32 16.32 0 0 1-1.572-.628c-.053.471-.131.917-.236 1.336-.052.052-.157.079-.315.079-.157 0-.262-.027-.314-.079a3.846 3.846 0 0 0-.236-.393 80.17 80.17 0 0 0 2.28-2.201l-1.1-.786h1.257v-1.966h-1.73l1.337-1.179a14.245 14.245 0 0 0-1.572-1.494l-1.494 1.18.708.707c.314.367.55.63.707.786h-1.415a37.912 37.912 0 0 1-.078-2.515h-2.437c0 .89.026 1.73.078 2.515h-1.887v-.707c.158 0 .394-.026.708-.079h.708l-.315-1.65c-1.52.052-3.38.13-5.581.235l.393 1.73 1.572-.079v.55h-2.359v1.966h2.359v.786l-2.437.157.314 2.201c.158 0 .393-.026.708-.078.681-.053 1.153-.105 1.415-.158v.315c.052.314-.157.471-.629.471h-1.336c.052.158.104.367.157.63.157.576.262.995.314 1.257.21 0 .603-.026 1.18-.078h.943c1.205-.053 1.808-.603 1.808-1.651.42.629.76 1.179 1.022 1.65.89-.366 1.65-.76 2.28-1.179.576.944 1.388 1.39 2.437 1.337l-.194.004zm-10.655-7.55v-2.123h-5.817v2.123h5.817zm-3.616 7.468v-.786h1.493v.786h2.123v-6.76h-5.739v6.76h2.123zm8.804-2.044v-.865l1.494-.157v-.943c.053-.472.079-.839.079-1.1l-1.573.157v-.63h1.966c.157.996.34 1.835.55 2.516-.734.42-1.572.76-2.516 1.022zm4.639-2.515-.158-1.022h1.258a7.415 7.415 0 0 1-.55.471c-.21.262-.393.446-.55.55zm-11.95 1.65h-1.493v-1.572h1.493v1.572zm28.39 2.988c.996-.786 1.677-1.389 2.044-1.808.315-.262.55-.446.708-.55.786 1.572 1.939 2.332 3.459 2.28 1.415.052 2.306-.577 2.673-1.888.262-.733.524-1.965.786-3.694-.42-.158-1.075-.446-1.966-.865a6.061 6.061 0 0 0-.707-.315c0 .158-.026.393-.079.708-.105.996-.183 1.65-.236 1.965-.052.524-.235.76-.55.708-.262 0-.472-.21-.629-.63l-.471-.942c1.415-1.887 2.725-3.984 3.93-6.29l-2.751-1.257c-.891 1.782-1.599 3.04-2.123 3.773-.157-1.153-.288-2.62-.393-4.402h5.66v-2.752h-2.594l1.258-.55c-.157-.42-.629-1.205-1.415-2.358l-2.359 1.022.164.327.221.443.087.173c.262.42.446.734.55.943h-1.73a47.254 47.254 0 0 1-.078-2.908h-3.223c0 .733.053 1.52.157 2.358v.55h-9.826v2.752h9.984c.262 3.25.602 5.817 1.022 7.704-.524.524-1.127 1.1-1.809 1.73 0-.105.027-.21.08-.315v-.236c-1.05.052-2.883.183-5.504.393-1.939.105-3.275.184-4.01.236l.551 2.987c2.463-.262 5.058-.524 7.783-.786.472.577.917 1.075 1.336 1.494zm-.314-5.031v-7.076h-8.333v7.076h8.333zm-2.909-2.595H138.4v-1.886h2.437v1.886zm34.286-6.603v-3.302h-16.509v3.302h16.51zm-.865 6.446v-3.223h-14.7v3.223h14.7zm2.044 6.604v-3.224h-18.788v3.224h18.788zm5.985 1.179c4.036-1.94 6.5-4.272 7.39-6.997 1.205 3.145 3.59 5.398 7.154 6.76.262-.418.734-1.047 1.415-1.886.42-.471.734-.838.943-1.1-4.35-1.153-6.944-3.721-7.783-7.704h7.233v-3.145h-7.233c0-1.205.053-2.751.158-4.638h-3.538c0 .786-.052 2.332-.157 4.638h-7.154v3.145h6.918c-.42 3.616-2.935 6.315-7.547 8.097.786.786 1.52 1.73 2.201 2.83zm25.324-.157v-2.91c.472.735.996 1.442 1.573 2.123 1.834-1.205 3.249-2.541 4.245-4.009v4.796h3.144v-4.874c.786 1.362 2.123 2.672 4.01 3.93.157-.21.366-.576.628-1.1.42-.734.734-1.258.944-1.573-1.677-.786-2.961-1.73-3.852-2.83h3.616V202.8h-5.346v-1.415h4.245v-7.468h-11.556v7.468h4.167v1.415h-5.425v2.751h3.46c-.996 1.206-2.28 2.254-3.853 3.145v-10.692a31.094 31.094 0 0 0 1.18-3.93l-3.066-.786c-.682 3.144-1.651 5.896-2.91 8.254.158.839.29 1.992.394 3.459.052.42.079.734.079.943.157-.262.393-.602.707-1.022.315-.471.55-.812.708-1.022v8.098h2.908zm10.22-13.365h-5.582v-1.965h5.582v1.965zm26.818 1.415v-2.2h-2.28l.55-.944h1.18v-2.28h-4.089v-1.258h-2.987v1.258h-3.93v2.28h1.179c.105.105.236.288.393.55.105.157.183.288.236.393h-2.359v2.201h12.107zm-15.723 12.107v-3.852l.314 1.415c.158-.053.341-.079.55-.079a2.31 2.31 0 0 1 .551-.078c1.467-.262 2.201-1.52 2.201-3.774a7.57 7.57 0 0 0-1.179-4.088l1.258-5.11v-2.594h-6.29v18.16h2.595zm.393-5.425h-.393v-10.14h1.258l-1.1 5.345c.68 1.153 1.021 2.254 1.021 3.302 0 .996-.262 1.493-.786 1.493zm10.063-8.883h-1.494l-.55-.943h2.594l-.55.943zm.55 14.308v-1.73h4.874v-2.28h-4.874v-.628h3.852v-6.84H233.17v6.84h3.852v.629h-4.795v2.28h4.795v1.729h2.909zm1.18-8.884h-5.268v-.628h5.267v.628zm0 2.28h-5.268v-.629h5.267v.63zm14.789 2.752v-7.233c.105.21.262.577.472 1.1.21.42.34.708.393.866 1.939-.472 3.563-1.075 4.874-1.808 1.31.68 3.04 1.257 5.188 1.729.315-.943.629-1.808.943-2.594-1.467-.21-2.699-.472-3.694-.786.733-.63 1.52-1.468 2.358-2.516h1.18v-2.437h-6.054c.262-.314.498-.707.708-1.18l-3.066-.156c-.734 1.467-1.835 2.83-3.302 4.087v-1.336h-2.437v12.264h2.437zm-3.145 3.773V197.69a80.67 80.67 0 0 0 1.1-3.145c.053-.262.106-.471.158-.628l-2.987-.55c-.577 2.987-1.441 5.633-2.594 7.94 0 .104.026.287.078.55.262 1.572.446 2.777.55 3.616l1.022-1.651v8.254h2.673zm8.805-13.679a6.073 6.073 0 0 1-1.494-1.336h3.066c-.419.42-.89.812-1.415 1.18l-.157.156zm-5.66 2.202v-2.83c.576.786 1.048 1.44 1.415 1.965.105-.105.288-.262.55-.472l.472-.471c.314.314.603.576.865.786-.944.471-2.044.812-3.302 1.022zm6.918 11.634v-4.166c.786.996 2.018 2.175 3.695 3.537.524-.838 1.048-1.467 1.572-1.886-1.625-1.258-2.935-2.437-3.93-3.538h2.83v-2.594h-4.167v-1.336h-2.752v1.336h-3.616v2.594h2.437c-1.048 1.1-2.594 2.28-4.638 3.538.576.367 1.127.996 1.65 1.886 2.097-1.52 3.486-2.672 4.167-3.458v4.087h2.752zm12.746-.078v-14.308a29.547 29.547 0 0 0 1.1-4.088l-2.83-.55c-.629 2.987-1.467 5.66-2.515 8.019 0 .104.026.288.078.55.21 1.887.34 3.223.393 4.01.367-.577.63-.997.786-1.259l.236-.471v8.097h2.752zm8.962-.236c1.257 0 2.2-.026 2.83-.079 1.73 0 2.541-.995 2.437-2.987v-15.487h-2.752v14.78c.053.733-.236 1.074-.865 1.021h-2.2c.209.787.392 1.704.55 2.752zm-6.525.393c2.096-1.782 3.485-3.616 4.166-5.503.734-1.887 1.1-4.664 1.1-8.333h-3.144a9.236 9.236 0 0 0 .157-1.65h3.145v-2.674h-6.682v2.673h.943c-.21 2.359-.865 4.665-1.965 6.918a31.21 31.21 0 0 1 1.1 2.28c.105.262.184.472.236.629l.236-.472c.315-.472.524-.838.629-1.1l1.415 1.415c-.681 1.362-1.782 2.568-3.302 3.616a14.857 14.857 0 0 1 1.966 2.201zm8.254-4.874v-11.95h-2.358v11.95h2.358zm-5.896-3.773c-.42-.315-.865-.682-1.336-1.101.21-.472.393-.97.55-1.494h1.18a30.407 30.407 0 0 1-.394 2.595zm17.777 2.515.629-12.028h-4.245l.55 12.028h3.066zm.472 5.346v-3.616h-3.93v3.616h3.93z" fill="#FFF" fill-rule="nonzero"/>
        <g>
            <path d="M299.125 371.417c5.109 0 9.734 2.07 13.081 5.418a18.442 18.442 0 0 1 5.419 13.082v30.25H30.25v-30.25c0-5.109 2.07-9.734 5.419-13.082a18.442 18.442 0 0 1 13.081-5.418h250.375z" stroke="#FF6100" stroke-width="3" fill="#FAFAFA"/>
            <text font-family="FZLTZHB--B51-0, Lantinghei TC" font-size="16" font-weight="500" letter-spacing=".8" fill="#FF6100" transform="translate(28.75 369.917)">
                        <tspan x="28.75" y="31.833">請勿點擊不明連結或掃</tspan>
                        <tspan x="196.75" y="31.833" font-family="Arial-BoldMT, Arial" font-weight="bold">QR Code</tspan>
                    </text>
        </g>
        <path d="M46.12 436.221v-1.257h3.174v-1.378H46.12v-1.557h-1.617v1.557H40.19v-1.557h-1.617v1.557h-3.354v1.378h3.354v1.197h1.617v-1.197h4.313v1.257h1.617zm-6.828 10.183v-.839h6.888v.839h1.557v-6.05h-7.906a8.952 8.952 0 0 0 1.497-1.797h7.906v-1.377h-6.948c.2-.36.42-.759.66-1.198l-1.618-.3a7.675 7.675 0 0 1-.838 1.498h-5.331v1.377h4.312c-1.078 1.318-2.615 2.536-4.612 3.654.24.48.46.978.66 1.497.159-.12.399-.28.718-.479.639-.479 1.118-.818 1.437-1.018v4.193h1.618zm6.888-2.097h-6.888v-2.575h6.888v2.575zm10.754 2.037v-3.055h6.888v.54c.08.718-.28 1.037-1.078.957h-2.036c.04.12.08.28.12.48.12.399.199.718.239.958.958 0 1.757-.02 2.396-.06 1.437 0 2.116-.619 2.036-1.857v-7.726h-7.786c.12-.16.3-.44.539-.839.12-.24.22-.42.3-.539h8.445v-1.437H59.27c.08-.2.2-.46.36-.779.16-.36.279-.619.359-.779l-1.797-.18c-.08.2-.2.48-.36.84-.16.398-.299.698-.419.898h-4.432v1.437h3.654c-.919 1.677-2.276 3.254-4.073 4.732 0 .04.04.12.12.24.279.638.479 1.098.598 1.377a23.114 23.114 0 0 0 2.037-1.917v6.709h1.617zm6.888-7.008h-6.888v-1.378h6.888v1.378zm0 2.635h-6.888v-1.377h6.888v1.377zm9.032-4.79.165-.001h2.097c.878 0 1.437-.36 1.677-1.078.04-.12.08-.34.12-.66.08-.239.14-.439.18-.598a.98.98 0 0 1-.24-.06l-1.079-.36c0 .28-.06.6-.18.959-.08.439-.359.639-.838.599h-1.198c-.639.04-.938-.24-.898-.839v-.18c.44-.12 1.058-.279 1.857-.479 1.038-.28 1.816-.499 2.336-.658l-.6-1.139c-1.117.36-2.315.72-3.593 1.079v-1.558h-1.438v3.175c-.04 1.238.56 1.837 1.797 1.797l-.165.001zm4.238 9.283c.719-.879 1.198-1.638 1.438-2.276.599 1.038 1.517 1.597 2.755 1.677h.539c1.078.08 1.977.12 2.695.12.12-.56.22-.999.3-1.318-1.438 0-2.496-.02-3.175-.06v-2.396h2.815v-1.318h-2.815v-2.336h1.797l-.599 1.378 1.258.24.659-1.618v-1.317h-3.235l.36-.42 2.575-2.455v-1.498h-6.948v1.318h5.271l-1.916 1.797c-.24-.2-.64-.52-1.198-.959-.32-.2-.54-.359-.66-.479l-.898.899c.28.2.799.599 1.558 1.198.36.28.619.479.778.599h-3.474v1.317h3.235v5.69c-.48-.28-.919-.918-1.318-1.916.08-.48.12-1.318.12-2.516l-1.378-.06c0 1.677-.1 2.855-.3 3.534-.199.719-.658 1.458-1.377 2.216.12.08.28.22.48.42.319.24.538.419.658.539zm-5.75-.06c1.278-.759 2.176-1.558 2.695-2.396a23.295 23.295 0 0 1 1.797 1.437l.839-1.078c-.6-.479-1.318-1.038-2.156-1.677l.06-.36h2.335v-1.257h-2.216c.04-.44.06-.958.06-1.557h1.737v-1.198H72.84l.074-.15.105-.21c.04-.16.08-.28.12-.359l-1.318-.18a7.053 7.053 0 0 1-1.437 2.696c.44.24.798.479 1.078.718.36-.479.639-.918.838-1.317h1.019v1.557h-2.935v1.258h2.755c-.2 1.158-1.138 2.156-2.815 2.995.16.16.36.379.599.658l.42.42zm17.822-.06c.64-1.118 1.058-2.176 1.258-3.175.2-1.038.3-2.475.3-4.312v-3.534h10.062l-.12.838c.64 0 1.118.06 1.438.18l.3-2.036h-6.71v-.66h5.93v-.838h-5.93v-.778h-1.556v2.276h-4.912v4.492c.08 2.955-.36 5.091-1.318 6.409.12.12.34.32.66.599.279.28.478.459.598.539zm10.662-8.026c.918.04 1.477-.24 1.677-.839 0-.04.02-.08.06-.12.08-.28.14-.499.18-.658-.16-.04-.4-.08-.72-.12-.319-.08-.558-.12-.718-.12-.08.2-.12.36-.12.48-.08.398-.38.578-.898.538H96.59c-.639.04-.958-.14-.958-.539l3.953-.18-.06-.838-3.893.18v-.48h-1.497v.54l-2.815.18.06.957 2.755-.12c.04.8.619 1.179 1.737 1.139h3.953zm-2.995 6.349 1.018-.779c-.36-.4-.739-.799-1.138-1.198h4.612v-3.773H91.8v3.773h4.552l-.779.54c.08.119.22.279.42.478.399.4.678.72.838.959zm2.995-4.253H97.25v-.659h2.576v.66zm-4.013 0h-2.576v-.659h2.576v.66zm0 1.438h-2.576v-.66h2.576v.66zm4.013 0H97.25v-.66h2.576v.66zm1.557 3.833 1.138-.719c-.04-.08-.12-.18-.24-.3a27.495 27.495 0 0 0-1.138-1.557l-1.138.6c.48.638.819 1.117 1.019 1.437l.359.539zm-6.347.421.178-.002h2.695c.998 0 1.617-.36 1.857-1.078.12-.24.2-.5.24-.779.04-.16.06-.28.06-.359-.44-.12-.88-.28-1.318-.48-.04.4-.12.76-.24 1.079-.08.36-.4.52-.958.48h-1.797c-.679.04-.998-.16-.959-.6v-1.198h-1.437v1.438c-.04 1.038.579 1.537 1.857 1.497l-.178.002zm-3.236-.122.134-.27.165-.329c.4-.718.679-1.277.839-1.677l-1.198-.479c-.36.759-.739 1.458-1.138 2.097.36.2.758.419 1.198.658zm20.457-4.132c1.358-.72 2.017-1.857 1.977-3.414v-1.977h-2.216v2.276h1.198c0 1.038-.5 1.857-1.498 2.456l.54.659zm25.669-3.654v-1.078h-3.893v-.899h3.294v-1.018h-3.294v-.838h3.653v-1.079h-3.654v-1.197h-1.497v1.197h-3.354v1.079h3.354v.838h-3.114v1.018h3.114v.899h-3.594v1.078h8.985zm-9.883-4.492v-1.138h-3.893v1.138h3.893zm.719 2.216v-1.258h-5.391v1.258h5.39zm-.42 2.096v-1.138h-4.552v1.138h4.552zm2.636 8.326v-2.396h4.672v.3c.04.558-.24.818-.839.778-.759 0-1.338-.02-1.737-.06.12.44.22.879.3 1.318.28 0 .678-.02 1.198-.06h.778c1.238 0 1.837-.619 1.797-1.857v-5.33h-7.607v7.307h1.438zm-2.636-6.17v-1.138h-4.552v1.138h4.552zm7.308.839h-4.672v-.898h4.672v.898zm-10.482 5.33v-.838h1.857v.779h1.257v-5.091h-4.432v5.15h1.318zm10.482-3.353h-4.672v-.959h4.672v.959zm-8.625 1.377h-1.857v-1.976h1.857v1.976zm15.126 2.037c3.115-1.198 4.672-3.135 4.672-5.81v-.36h2.516v3.894c-.04 1.277.619 1.896 1.977 1.856h1.856c1.278.04 2.017-.479 2.216-1.557.16-.519.26-1.178.3-1.976-.24-.08-.639-.22-1.198-.42-.12-.04-.22-.08-.3-.12-.04.68-.12 1.298-.239 1.857-.04.56-.36.839-.958.839h-1.078c-.64.04-.939-.26-.899-.899v-3.474h4.492v-1.557h-5.93v-2.516h5.032v-1.497h-5.031v-2.575H147.9v2.575h-2.815c.24-.599.48-1.258.72-1.976l-1.618-.24c-.52 1.837-1.318 3.434-2.396 4.792.48.28.938.579 1.378.898a8.999 8.999 0 0 0 1.198-1.977h3.534v2.516h-6.589v1.557h3.833v.36c0 2.116-1.337 3.554-4.013 4.312.36.56.7 1.058 1.018 1.498zm17.583 0c1.757-1.877 2.655-5.171 2.695-9.883v-.36h1.797c0 2.516-.04 4.932-.12 7.248 0 .759-.379 1.118-1.138 1.078h-1.377c.12.48.22.998.3 1.557.838 0 1.437-.02 1.796-.06 1.278 0 1.917-.698 1.917-2.096.12-2.236.18-5.31.18-9.224h-3.295v-2.575h-1.557v2.575h-1.857v1.497h1.797v.3c0 4.033-.759 6.928-2.276 8.685.28.28.659.699 1.138 1.258zm8.865-.36v-1.377h2.575v1.377h1.557v-12.398h-5.63v12.398h1.498zm2.575-2.815H168.6v-8.086h2.575v8.086zm18.541 2.935a8.4 8.4 0 0 1 1.378-1.497c-3.434-2.276-5.49-6.15-6.17-11.62h-5.99v1.497h4.253c-.878 4.313-3.114 7.687-6.708 10.123.4.519.679.878.839 1.078.12.2.22.34.3.42 3.273-2.277 5.45-5.252 6.528-8.925.878 3.713 2.735 6.688 5.57 8.924zm6.562-9.463v-1.737h10.362v1.737h1.617v-3.055h-5.87v-1.557h-1.617v1.557h-6.05v3.055h1.558zm1.677 9.703v-.779h7.427v.719h1.617v-4.792h-9.044v-1.258h8.445v-4.073h-10.062v10.183h1.617zm6.828-7.368h-6.828v-1.497h6.828v1.497zm.599 5.451h-7.427v-1.617h7.427v1.617zm7.82 1.977c2.555-1.717 3.933-3.994 4.132-6.829h5.331c0 1.198-.06 2.276-.18 3.235-.04 1.198-.659 1.757-1.857 1.677a37.31 37.31 0 0 1-2.455-.06c.04.12.08.28.12.48.12.478.2.838.24 1.077 1.037 0 1.916-.02 2.635-.06 1.956.04 2.954-.838 2.994-2.635 0-.2.02-.54.06-1.018.12-1.837.2-3.235.24-4.193h-7.008c.08-.759.08-.819 0-.18.08-.918.12-1.617.12-2.096h8.625v-1.557h-6.05v-2.216h-1.856v2.216h-6.11v1.557h3.654c0 .719-.04 1.637-.12 2.755 0 2.835-1.278 5.031-3.833 6.589l1.317 1.258zm25.728-1.079v-1.437H232.4v-10.841h-1.857v12.278h8.386zm6.262 0v-12.278h-1.857v12.278h1.857zm7.04 0v-10.122l6.35 10.122h2.156v-12.278h-1.797v10.062h-.06l-6.229-10.062h-2.216v12.278h1.797zm22.974 0v-1.497h-7.487v-4.013h6.828v-1.557h-6.828v-3.654h7.247v-1.557h-9.164v12.278h9.404zm5.903-8.804v-1.677h10.242v1.677h1.498v-2.995h-5.69v-1.378h-1.618v1.378h-5.99v2.995h1.558zm-1.677 5.27c3.114-.439 5.39-.938 6.828-1.497 1.517.56 3.694.959 6.529 1.198.04-.2.14-.499.3-.898l.179-.54c-2.117-.08-3.834-.259-5.151-.538a15.028 15.028 0 0 0 2.875-2.157v-1.317h-6.23c.04-.04.1-.12.18-.24.2-.24.34-.42.42-.54l-1.618-.119c-.958 1.238-2.296 2.276-4.013 3.115.36.399.66.758.899 1.078.838-.44 1.537-.899 2.096-1.378a10.533 10.533 0 0 0 1.857 1.498c-1.597.439-3.474.738-5.63.898.2.48.359.958.479 1.438zm6.888-2.874a10.976 10.976 0 0 1-2.396-1.618h5.091c-.599.52-1.497 1.059-2.695 1.618zm-3.534 7.427v-.6h6.888v.6h1.557v-4.612h-10.002v4.612h1.557zm6.888-1.737h-6.888v-1.618h6.888v1.618zm8.06 1.737c.718-1.278 1.097-2.875 1.137-4.792h1.797v2.575c.04.44-.2.64-.719.6-.519 0-.858-.02-1.018-.06 0 .08.02.2.06.359l.18 1.078c.599 0 1.098-.02 1.497-.06.918-.08 1.378-.579 1.378-1.497v-11.86h-4.493v6.769c.08 2.835-.24 4.751-.958 5.75l.3.3c.359.398.638.678.838.838zm6.887-.06v-1.078l.659.958a39.756 39.756 0 0 0 2.336-1.737c.759.559 1.697 1.158 2.815 1.797l.023-.047.067-.133.15-.3.539-.898c-1.039-.439-1.917-.958-2.636-1.557.68-.879 1.298-2.156 1.857-3.833v-1.498h-5.81v-3.893h4.133v.839c-.04.599-.46.878-1.258.838h-1.677c.12.44.2.859.24 1.258h2.096c1.318 0 1.997-.639 2.036-1.917.04-.24.06-.639.06-1.198.04-.479.06-.858.06-1.138h-7.187v13.537h1.497zm-3.953-9.823h-1.737v-2.456h1.737v2.456zm0 3.833h-1.737v-2.575h1.737v2.575zm3.953 4.432v-5.39h1.138l-.838.42c.479 1.437 1.058 2.615 1.737 3.533a9.345 9.345 0 0 1-2.037 1.437zm2.995-2.455c-.52-.64-.998-1.617-1.438-2.935h2.816c-.32 1.118-.78 2.096-1.378 2.935zm-269.82 26.054v-12.278h-1.858v12.278h1.857zm9.256 0c4.233.08 6.31-1.976 6.23-6.169-.08-3.993-2.177-6.03-6.29-6.11h-4.073v12.28h4.133zm-.12-1.437h-2.156v-9.284h2.157c2.835.08 4.292 1.597 4.372 4.552 0 3.155-1.458 4.732-4.373 4.732zm18.362-6.649v-2.276h-2.216v2.276h2.216zm0 6.23v-2.276h-2.216v2.276h2.216zm17.515 5.18c2.695.046 4.874-.83 6.536-2.627l-.674-.876c-1.437 1.392-3.347 2.111-5.727 2.156-4.178-.18-6.334-2.47-6.47-6.873.315-4.762 2.516-7.322 6.604-7.682 3.774.18 5.75 2.269 5.93 6.267-.09 2.83-.876 4.357-2.358 4.582-.764.135-1.056-.517-.876-1.954.09-.764.292-2.808.606-6.132h-1.482c-.09.943-.135 1.437-.135 1.482-.225-1.078-.921-1.64-2.089-1.684-2.426.27-3.75 2.089-3.976 5.458.045 2.56.989 3.863 2.83 3.908 1.483-.045 2.426-.764 2.83-2.156 0-.045.023-.068.068-.068-.09 1.438.54 2.18 1.887 2.224 2.65-.135 4.043-2.066 4.177-5.795-.269-4.807-2.74-7.322-7.412-7.547-5.03.36-7.749 3.37-8.153 9.03.18 5.3 2.808 8.063 7.884 8.288zm-.809-5.12c-1.168 0-1.752-.876-1.752-2.628 0-1.303.247-2.314.742-3.033.494-.718 1.123-1.078 1.886-1.078 1.123.09 1.685.831 1.685 2.224 0 .494-.045 1.01-.135 1.55-.135.808-.382 1.46-.741 1.954-.54.674-1.1 1.01-1.685 1.01zm15.088 1.819v-5.728c.09-1.841.853-2.785 2.29-2.83 1.393-.045 2.067.831 2.022 2.628v5.93h2.09v-5.795c.089-1.752.853-2.673 2.29-2.763 1.393-.045 2.067.854 2.022 2.696v5.862h2.089v-6.2c0-2.65-1.101-3.975-3.302-3.975-1.573.045-2.673.764-3.302 2.156-.36-1.437-1.348-2.156-2.965-2.156-1.437.045-2.515.719-3.234 2.022v-1.752h-2.022v9.905h2.022zm19.332 3.84c1.393.18 2.516-.943 3.37-3.368.494-1.123 1.931-4.582 4.312-10.377h-2.224l-2.29 6.67-.405 1.28h-.067l-.405-1.28-2.493-6.67h-2.223l4.177 9.568a30.384 30.384 0 0 1-.606 1.415c-.36.854-.966 1.258-1.82 1.213a3.45 3.45 0 0 1-1.28-.27l.135 1.483c.36.224.966.337 1.82.337zm11.112-6.535c.405 2.11 2.022 3.1 4.852 2.964 2.785-.045 4.2-1.01 4.245-2.897.09-1.438-.853-2.38-2.83-2.83-.54-.135-1.056-.27-1.55-.404-1.572-.27-2.313-.742-2.223-1.415 0-.944.65-1.416 1.954-1.416 1.213 0 1.954.495 2.223 1.483l2.022-.27c-.494-1.841-1.954-2.74-4.38-2.695-2.516.09-3.841 1.078-3.976 2.965-.045 1.303.989 2.201 3.1 2.695.18.045.472.113.876.202.314.09.539.135.674.135 1.437.315 2.111.809 2.021 1.483-.045 1.033-.808 1.55-2.29 1.55-1.483.044-2.382-.585-2.696-1.887l-2.022.337zm15.896 2.695v-5.526c.09-1.931.989-2.942 2.696-3.032 1.527 0 2.29.899 2.29 2.696v5.862h2.022v-6.2c.045-2.695-1.145-4.02-3.571-3.975-1.482.045-2.628.719-3.437 2.022v-6.065h-2.021v14.218h2.021zm14.212-11.792v-2.089h-2.089v2.089h2.089zm0 11.792v-9.905h-2.089v9.905h2.089zm7.204 3.706v-5.054c.674 1.033 1.774 1.572 3.301 1.617 2.696-.045 4.066-1.796 4.11-5.255-.134-3.28-1.482-4.987-4.042-5.122-1.662 0-2.785.63-3.37 1.887v-1.684h-2.088v13.61h2.089zm2.628-4.919c-1.752-.09-2.65-1.146-2.696-3.167v-1.146c.09-1.886.966-2.875 2.628-2.964 1.797.045 2.718 1.235 2.763 3.57 0 2.472-.898 3.707-2.695 3.707zm13.672 1.28c.36-4.088 2.067-8.176 5.121-12.263v-1.415h-9.636v1.684h7.278c-2.83 4.133-4.492 8.131-4.986 11.994h2.223zm15.357 0v-13.948h-1.55c-.808 1.572-2.38 2.897-4.716 3.976v1.819c1.796-.764 3.212-1.64 4.245-2.628v10.781h2.021zm11.719 0v-13.948h-1.55c-.809 1.572-2.381 2.897-4.717 3.976v1.819c1.797-.764 3.212-1.64 4.245-2.628v10.781h2.022z" fill="#FFF8A9" fill-rule="nonzero"/>
    </g>
</svg>
